PathFileType	4	(X/Y/Z)	Kaydara																																																																																																																									
DataRate	CameraRate	NumFrames	NumMarkers	Units	OrigDataRate	OrigDataStartFrame	OrigNumFrames																																																																																																																					
30	30	7	41	mm	30	167	147																																																																																																																					
Frame#	Time	PAIB_LFHD			PAIB_RFHD			PAIB_LBHD			PAIB_RBHD			PAIB_LFTShould			PAIB_RFTShould			PAIB_LRRShould			PAIB_RRRShould			PAIB_T10			PAIB_STRN			PAIB_TRUN			PAIB_LSHO			PAIB_LUPA			PAIB_LELB			PAIB_LFRM			PAIB_LWRA			PAIB_LWRB			PAIB_LFIN			PAIB_RSHO			PAIB_RUPA			PAIB_RELB			PAIB_RFRM			PAIB_RWRA			PAIB_RWRB			PAIB_RFIN			PAIB_LFWT			PAIB_RFWT			PAIB_LBWT			PAIB_RBWT			PAIB_LTHI			PAIB_LKNE			PAIB_LSHN			PAIB_LANK			PAIB_LHEE			PAIB_LTOE			PAIB_RTHI			PAIB_RKNE			PAIB_RSHN			PAIB_RANK			PAIB_RHEE			PAIB_RTOE		
		X1	Y1	Z1	X2	Y2	Z2	X3	Y3	Z3	X4	Y4	Z4	X5	Y5	Z5	X6	Y6	Z6	X7	Y7	Z7	X8	Y8	Z8	X9	Y9	Z9	X10	Y10	Z10	X11	Y11	Z11	X12	Y12	Z12	X13	Y13	Z13	X14	Y14	Z14	X15	Y15	Z15	X16	Y16	Z16	X17	Y17	Z17	X18	Y18	Z18	X19	Y19	Z19	X20	Y20	Z20	X21	Y21	Z21	X22	Y22	Z22	X23	Y23	Z23	X24	Y24	Z24	X25	Y25	Z25	X26	Y26	Z26	X27	Y27	Z27	X28	Y28	Z28	X29	Y29	Z29	X30	Y30	Z30	X31	Y31	Z31	X32	Y32	Z32	X33	Y33	Z33	X34	Y34	Z34	X35	Y35	Z35	X36	Y36	Z36	X37	Y37	Z37	X38	Y38	Z38	X39	Y39	Z39	X40	Y40	Z40	X41	Y41	Z41
																																																																																																																												
129	5.537	280.19066	1658.5881	1907.64252	95.74543	1656.86874	1898.87741	293.89025	1622.32788	1784.78531	90.35757	1632.99881	1786.21124	256.78661	1394.31702	1913.07281	134.62188	1388.60046	1913.82492	261.47795	1450.13931	1764.29504	107.32676	1447.86789	1777.26624	180.16747	1288.6203	1690.50095	205.38744	1327.89886	1953.30246	205.91372	1226.51039	1977.1022	384.34582	1400.80704	1830.64835	439.37222	1173.04977	1822.97333	453.08208	1089.36249	1782.19391	474.75334	975.42648	1826.00967	420.68462	863.09769	1920.21103	456.27762	843.58589	1851.03149	469.79633	807.92778	1912.98447	4.43227	1388.29819	1864.19861	-62.54156	1212.8492	1848.53348	-85.93719	1095.65796	1857.81128	-97.40577	967.04338	1917.61108	-27.39746	886.32111	2030.96252	-98.40047	862.08458	1991.66153	-85.80921	843.24303	2062.12982	303.55291	940.1516	1938.24585	69.39076	944.15138	1952.60361	235.08587	962.05055	1720.78949	90.23211	973.39684	1729.94049	293.40609	676.09146	1812.38525	351.0014	493.60085	2004.97574	310.5003	304.68397	1936.89255	291.62508	180.73553	1771.73141	232.59041	197.96749	1728.80264	276.08223	58.46167	1889.49722	43.05171	677.97623	1776.75613	56.73595	444.84833	1886.00876	127.7113	261.84401	1898.57315	98.77034	63.78445	1812.29813	157.48301	73.03088	1753.84018	128.20083	36.95379	1980.30853
130	5.57	282.42496	1657.97516	1946.5625	97.88823	1657.1106	1938.17871	295.57297	1622.34848	1823.31314	92.01742	1634.0062	1825.49088	258.51673	1394.20868	1950.29373	136.29207	1389.6109	1952.69012	261.50513	1449.40338	1802.03644	107.65864	1448.59909	1816.12122	177.93079	1288.56613	1729.30511	207.45884	1328.43201	1991.32828	207.80588	1227.155	2015.5751	385.43987	1399.3721	1866.16623	437.29576	1171.1245	1850.70526	449.75948	1089.36134	1805.66681	471.68797	973.15689	1841.49277	418.745	854.19945	1928.25043	453.48511	839.70901	1857.15851	466.96266	798.87131	1916.17447	5.7922	1391.45309	1904.58374	-63.27893	1216.87729	1896.57776	-88.12583	1100.43228	1912.63672	-96.73193	976.66855	1984.10141	-23.91375	909.07303	2104.272	-94.20596	879.23538	2067.94647	-81.56984	867.78122	2139.4632	303.03772	941.50223	1978.2579	68.76269	942.00912	1989.75006	238.18932	963.15475	1760.29861	93.45137	974.11575	1767.81403	299.96622	679.18655	1857.03247	347.58034	502.01157	2060.53864	310.24832	299.77652	2026.15692	295.24784	142.66935	1893.27454	235.05154	147.59605	1848.3905	285.77002	52.50525	2035.77026	44.42544	682.80045	1799.28986	54.68595	444.10156	1891.53214	126.98293	260.78176	1902.70477	99.02163	64.03502	1812.60162	157.52403	74.21973	1754.45831	127.83642	37.05203	1980.33844
131	5.603	285.02132	1654.72473	1985.35675	100.42526	1654.70703	1977.45483	297.59241	1619.1777	1861.9873	93.84202	1631.70166	1864.61044	260.69164	1390.70129	1988.23959	138.27518	1387.09229	1991.78665	262.23959	1445.59814	1840.06775	108.37626	1445.96375	1855.17563	176.8939	1285.35736	1768.35815	209.51508	1325.65598	2029.95331	209.42432	1224.47342	2054.69055	387.05006	1394.63058	1901.77292	436.42166	1166.14601	1878.36258	446.94183	1086.28113	1830.35126	469.13795	968.63571	1859.13086	417.18899	844.51027	1939.10583	451.19377	834.47632	1867.01035	464.68212	789.67606	1922.9631	7.96671	1390.242	1945.09247	-63.70445	1217.36389	1944.21783	-90.11727	1102.07115	1966.2674	-95.56981	984.34181	2048.63617	-19.3407	930.0415	2173.29361	-89.23384	894.85321	2140.84335	-75.77316	891.52458	2213.37021	302.67719	938.88947	2019.73831	68.41127	937.19826	2027.07687	242.66808	962.62299	1801.1467	98.23208	972.95517	1806.85715	301.76863	679.74426	1899.24179	344.55677	502.5164	2103.91281	312.30745	295.67842	2110.23788	301.53833	110.37565	2020.31158	239.88468	103.28238	1978.04169	302.71114	55.87988	2180.66055	44.94354	686.17416	1823.88916	55.24855	442.51896	1903.63876	126.70306	259.39175	1908.53592	99.60181	64.91749	1813.414	158.53228	75.68728	1755.5777	127.26197	36.84419	1980.31723
132	5.637	287.97825	1649.11407	2024.24698	103.32206	1649.41589	2016.58646	300.18778	1613.44742	1900.7756	96.34562	1626.41571	1903.75275	263.02963	1384.75052	2026.61667	140.60666	1381.89362	2030.81375	263.9155	1439.40903	1878.82553	110.22806	1440.49286	1894.12186	177.60468	1279.52927	1807.78305	211.64289	1320.33981	2068.85651	210.92331	1219.27521	2094.16336	389.53758	1388.16452	1938.73596	436.0553	1159.80568	1907.53845	444.36249	1081.63162	1856.85364	467.04002	963.09013	1879.36508	416.97403	835.00954	1954.19632	449.272	828.76686	1880.57083	463.82702	780.91957	1933.82187	10.80315	1386.01303	1985.12329	-63.01306	1215.04723	1990.97717	-91.1754	1101.33057	2018.47549	-93.88187	990.26985	2110.15472	-13.78973	947.75757	2237.19757	-84.17744	909.32854	2209.84802	-69.10315	912.93373	2282.0697	303.28135	933.90877	2063.64288	68.97735	930.9375	2065.66101	247.12505	958.57933	1843.63495	102.70246	969.31213	1846.56815	296.42262	673.35106	1935.21118	340.05371	491.7841	2136.76788	318.80831	295.91881	2185.6839	311.60946	94.34333	2142.64481	249.05142	77.46513	2104.60663	318.74208	73.19657	2313.89954	46.35143	688.10501	1851.09726	56.06576	440.62378	1916.68304	126.49848	257.20123	1915.89966	100.68115	65.83289	1814.17526	160.27996	77.23252	1757.57141	126.35758	36.85313	1979.95117
133	5.67	291.3995	1641.04828	2063.38943	106.6942	1641.56647	2055.83984	303.38898	1605.42389	1939.77203	99.56524	1618.65082	1943.02963	265.45902	1376.62094	2065.41702	143.15694	1374.25629	2069.43878	266.76493	1431.48987	1918.43811	113.01604	1432.79282	1932.47528	180.2187	1271.36703	1847.69806	213.8381	1312.7298	2107.77863	212.74078	1211.8158	2133.66043	392.8289	1380.61829	1978.39401	437.64732	1153.35365	1940.7019	442.83367	1076.23154	1886.19781	465.92701	956.97441	1902.94174	418.40065	825.81345	1973.93951	448.03741	822.68463	1898.81668	464.59541	772.53899	1949.31915	14.39863	1379.3869	2024.20059	-61.12306	1210.48935	2035.76492	-91.00344	1098.60634	2068.311	-91.06157	993.94264	2167.81464	-7.58905	961.47842	2295.79025	-78.5835	920.83778	2273.09204	-61.87967	930.43991	2344.37714	303.32483	925.62477	2107.42508	70.12683	923.70476	2106.15646	251.67988	951.06483	1886.7453	107.0223	962.92526	1887.10602	296.74145	662.8112	1970.57037	340.14198	473.84827	2165.89813	320.08087	300.07528	2249.9263	314.89981	94.48325	2244.08936	252.08405	70.52119	2209.40704	324.78107	103.47345	2419.42551	49.97707	687.8096	1881.61407	56.34794	437.59933	1933.2402	127.04924	253.54031	1926.92047	102.00483	67.18953	1815.72464	162.328	80.12477	1760.36316	125.78335	36.55962	1980.03922
134	5.703	295.15604	1632.64526	2102.78	110.38893	1633.64868	2095.05035	307.0546	1597.31094	1978.96942	103.27007	1611.11572	1982.16599	268.58601	1367.91016	2105.21149	146.08288	1365.96481	2108.32794	270.9565	1423.13965	1958.39539	116.89803	1424.17862	1970.31693	184.69063	1262.25456	1888.24722	216.49471	1304.27963	2147.31491	215.07435	1203.45154	2173.60962	396.73847	1372.09641	2019.57291	439.51416	1145.07172	1976.08398	443.71777	1069.56535	1920.2977	467.03659	950.02312	1932.02881	420.82478	815.76683	1998.79684	448.70815	816.02409	1923.22693	466.82167	763.85468	1971.56067	18.60229	1371.60797	2062.44415	-58.15318	1204.2144	2078.66577	-89.27113	1093.90663	2114.6492	-87.50059	994.98405	2220.10468	-1.57359	970.62881	2348.38181	-73.08829	928.69484	2329.47662	-54.90374	942.71889	2399.6489	304.61933	916.1702	2149.94949	70.67151	914.65736	2146.194	256.57249	942.62306	1928.15552	111.6835	955.3334	1927.73819	300.19455	654.89632	2012.37259	341.83762	466.84868	2199.06128	318.67161	299.03261	2298.92059	313.20635	92.81116	2307.91718	249.79332	67.02865	2274.2099	318.92776	113.51083	2484.13773	54.78572	684.73991	1916.55258	58.36801	432.96875	1960.17441	128.99467	247.17875	1938.61511	103.52431	70.3339	1818.77747	164.40567	85.9429	1764.71893	125.13721	36.3933	1980.2446
135	5.737	299.08499	1625.95993	2142.42142	114.23185	1627.16431	2134.22043	311.30173	1590.63049	2018.59329	107.41722	1604.57703	2021.13846	272.36008	1360.47958	2145.55771	149.6993	1358.83224	2148.23822	275.46473	1416.04004	1998.79913	121.03246	1417.10129	2009.55353	189.18554	1254.87358	1929.02939	220.24651	1296.94839	2187.48764	218.82206	1196.12419	2213.73276	400.89245	1364.08981	2060.68863	442.46109	1136.67282	2016.73386	447.13097	1061.74423	1960.2063	470.47276	942.71149	1968.68423	423.84022	806.34171	2030.71503	452.80067	809.07265	1955.466	469.97295	755.00732	2001.7865	22.66182	1364.00391	2101.2265	-54.1465	1197.33833	2118.73367	-86.13533	1088.1823	2156.63162	-83.19583	993.3445	2265.75394	3.77374	974.7789	2394.4162	-67.78733	931.76399	2377.66678	-49.03477	948.96545	2447.03781	308.43607	910.27901	2190.73196	74.46835	907.43347	2187.89948	259.82441	935.35942	1968.80783	115.45145	948.12363	1969.21234	305.49088	648.90564	2059.23599	340.97046	469.49192	2246.22772	314.90959	286.26986	2336.12869	308.11277	80.36976	2327.56622	246.81902	57.05385	2289.56879	305.69292	87.66643	2504.48944	59.20046	680.40047	1954.78256	60.66433	428.67249	1991.98853	129.56078	243.89627	1956.90201	102.67371	76.84381	1822.94159	163.38789	96.20334	1770.27771	124.69365	36.20133	1980.4364
